<?xml version="1.0" standalone="no"?>
<!DOCTYPE svg PUBLIC "-//W3C//DTD SVG 20010904//EN"
        "http://www.w3.org/TR/2001/REC-SVG-20010904/DTD/svg10.dtd">
<svg version="1.0" xmlns="http://www.w3.org/2000/svg" viewBox="0 0 380 380"
     preserveAspectRatio="xMidYMid meet">

    <defs>
        <linearGradient id="purpleGradient" x1="0%" y1="0%" x2="100%" y2="100%">
            <stop offset="0%" style="stop-color:#9c27b0"/>
            <stop offset="100%" style="stop-color:#673ab7"/>
        </linearGradient>
    </defs>

    <g transform="translate(-80.000000,470.000000) scale(0.1,-0.1)"
       fill="url(#purpleGradient)" stroke="black" stroke-width="50">
        <path d="M2405 4370 c-118 -14 -286 -48 -379 -77 -342 -107 -703 -392 -920
-725 -332 -510 -376 -1166 -115 -1718 224 -471 664 -806 1179 -896 152 -26
367 -23 516 9 415 88 729 299 922 621 204 339 229 894 57 1241 -121 244 -411
449 -703 495 -363 58 -689 -82 -816 -350 -26 -55 -31 -80 -34 -161 -5 -117 9
-188 54 -279 58 -114 177 -203 292 -217 l52 -6 -32 62 c-25 49 -32 76 -36 140
-11 199 92 314 283 315 68 1 89 -3 137 -27 194 -95 255 -417 124 -642 -31 -52
-111 -127 -167 -155 -97 -50 -149 -62 -289 -67 -166 -6 -250 9 -370 68 -164
80 -304 255 -356 444 -25 94 -30 267 -9 362 78 351 345 657 671 768 138 46
236 59 418 52 120 -4 170 -11 246 -32 109 -30 247 -93 350 -159 92 -60 245
-208 326 -316 221 -296 306 -606 275 -1000 -16 -203 -51 -414 -98 -580 -6 -23
-5 -24 12 -10 30 25 126 158 190 265 102 172 180 378 222 590 27 137 24 434
-6 575 -154 721 -672 1228 -1417 1386 -109 23 -158 27 -314 30 -102 1 -221 -2
-265 -6z"/>
    </g>
</svg>
